<svg xmlns="http://www.w3.org/2000/svg" viewBox="0 0 512 512" role="img" aria-labelledby="pacific-wave-mark-dark-title">
  <title id="pacific-wave-mark-dark-title">pacific wave mark</title>
  <defs>
    <linearGradient id="pacific-dark-bg" x1="72" y1="44" x2="432" y2="468" gradientUnits="userSpaceOnUse">
      <stop offset="0" stop-color="#07111F"/>
      <stop offset="1" stop-color="#020817"/>
    </linearGradient>
    <linearGradient id="pacific-dark-teal-wave" x1="72" y1="276" x2="446" y2="178" gradientUnits="userSpaceOnUse">
      <stop offset="0" stop-color="#0F8EDB"/>
      <stop offset="0.42" stop-color="#14C8C8"/>
      <stop offset="1" stop-color="#35E2DE"/>
    </linearGradient>
    <linearGradient id="pacific-dark-blue-wave" x1="78" y1="310" x2="438" y2="402" gradientUnits="userSpaceOnUse">
      <stop offset="0" stop-color="#07111F"/>
      <stop offset="0.58" stop-color="#0A2B63"/>
      <stop offset="1" stop-color="#0F8EDB"/>
    </linearGradient>
    <filter id="pacific-soft-shadow" x="-20%" y="-20%" width="140%" height="140%">
      <feDropShadow dx="0" dy="16" stdDeviation="18" flood-color="#000814" flood-opacity="0.28"/>
    </filter>
  </defs>
  <rect width="512" height="512" rx="112" fill="url(#pacific-dark-bg)"/>
  <g filter="url(#pacific-soft-shadow)">
    <path
      fill="url(#pacific-dark-teal-wave)"
      d="M63 289c48-59 96-96 148-98 47-2 72 43 105 62 39 23 86 10 133-38-26 62-72 99-133 100-54 1-80-38-119-49-39-11-83 1-134 23Z"
    />
    <path
      fill="url(#pacific-dark-blue-wave)"
      d="M76 329c42-35 84-48 126-39 45 10 69 48 111 62 48 15 93-4 138-61-24 78-78 126-148 128-50 1-75-34-113-53-33-17-70-28-114-37Z"
    />
  </g>
</svg>
